<?xml version="1.0" encoding="utf-8"?>
<!-- Generator: Adobe Illustrator 24.1.0, SVG Export Plug-In . SVG Version: 6.00 Build 0)  -->
<svg version="1.1" id="Layer_1" xmlns="http://www.w3.org/2000/svg" xmlns:xlink="http://www.w3.org/1999/xlink" x="0px" y="0px"
	 viewBox="0 0 140 140" style="enable-background:new 0 0 140 140;" xml:space="preserve">
<style type="text/css">
	.st0{fill:#FFFFFF;}
	.st1{fill-rule:evenodd;clip-rule:evenodd;fill:#D50019;}
	.st2{fill-rule:evenodd;clip-rule:evenodd;fill:none;stroke:#000000;stroke-miterlimit:10;}
</style>
<rect x="16.6" y="21.3" class="st0" width="105.8" height="97.9"/>
<g>
	<path class="st1" d="M59.5,33.6h4.6v9.1c-8.9,0-20.4,8.1-20.4,18.3c0,19.2,27.6,18.2,27.6,25.4c0,3.3-4.9,3.9-7.2,3.9
		c-11.9,0-13.5-13-18.4-13c-1.8,0-3.3,2.3-3.3,6.5c0,14.2,11,16.3,21.7,16.3v7.8c-4.6-0.3-7.2,0.3-11.8,0
		c-12.1-1-25.6-6.5-25.6-17.6V51.2C26.6,33.4,53.2,34.5,59.5,33.6z"/>
	<path class="st1" d="M72.4,33.6h4c7.5,1.3,34.4-1.3,34.4,17v40.5c0,11.3-12.8,16.9-24.2,16.9H72.3v-7.8c11.1,0,22.6-8.2,22.6-19.6
		c0-19.2-27.8-15.6-27.8-24.2c0-2.1,2.2-3.8,5.2-3.8c7.6,0,11.3,9.7,16.7,9.7c2.4,0,4.6-2.9,4.6-6.5c0-5.7-6.9-14.6-9.3-12.4
		c-2.2,2.1-9.5-1-11.9-0.6L72.4,33.6z"/>
</g>
<rect x="18.6" y="23.3" class="st2" width="101.5" height="93.9"/>
</svg>
